<?xml version="1.0" standalone="no"?>
<svg viewBox="0 0 200 200" xmlns="http://www.w3.org/2000/svg">
  <path fill="#F9D36E" d="M32,-45.5C46.1,-47.3,65.5,-48.1,63.4,-40.4C61.4,-32.6,37.9,-16.3,36.3,-1C34.6,14.4,54.7,28.8,59.6,41.4C64.5,54.1,54.1,64.9,41.7,62.1C29.2,59.3,14.6,42.7,2.3,38.7C-10,34.7,-19.9,43.2,-32.3,46C-44.7,48.8,-59.5,45.8,-64.9,37.2C-70.2,28.6,-66.2,14.3,-58.9,4.2C-51.6,-5.9,-41,-11.7,-31.9,-13.9C-22.8,-16,-15.1,-14.5,-10,-17.9C-5,-21.4,-2.5,-29.9,3.2,-35.4C8.9,-41,17.9,-43.7,32,-45.5Z" transform="translate(100 100)" />
</svg>
