<?xml version="1.0" standalone="no"?>
<svg viewBox="0 0 200 200" xmlns="http://www.w3.org/2000/svg">
  <path fill="#F9D36E" d="M28.2,-42.7C32.6,-41,29.6,-26.6,36.1,-15.5C42.6,-4.5,58.7,3.1,57.4,7.8C56,12.5,37.2,14.2,26.7,19.1C16.2,23.9,14,31.9,9.2,34.8C4.5,37.7,-2.6,35.6,-5.5,29.7C-8.3,23.8,-6.8,14.2,-15,10C-23.2,5.9,-41.2,7.2,-52.8,0.7C-64.4,-5.7,-69.6,-20,-65.3,-30C-61,-40,-47.1,-45.9,-34.6,-43.8C-22.1,-41.8,-11.1,-32,0.4,-32.6C11.9,-33.3,23.8,-44.4,28.2,-42.7Z" transform="translate(100 100)" />
</svg>
