<svg width="800" height="600" xmlns="http://www.w3.org/2000/svg">
<polygon points="464,515 469,515 466.5,510" fill="#FFC107" />
<circle cx="298" cy="192" r="3.5" fill="#9C27B0" />
<rect x="427" y="534" width="14" height="14" fill="#E91E63" />
<rect x="663" y="95" width="12" height="12" fill="#FFC107" />
<polygon points="138,263 151,263 144.5,250" fill="#FFC107" />
<circle cx="569" cy="486" r="6.0" fill="#FFC107" />
<rect x="448" y="327" width="7" height="7" fill="#E91E63" />
<circle cx="464" cy="417" r="3.5" fill="#E91E63" />
<rect x="123" y="47" width="11" height="11" fill="#FF5722" />
<rect x="320" y="351" width="19" height="19" fill="#03A9F4" />
<circle cx="487" cy="330" r="2.5" fill="#FF5722" />
<polygon points="481,359 494,359 487.5,346" fill="#9C27B0" />
<circle cx="433" cy="533" r="7.0" fill="#03A9F4" />
<circle cx="86" cy="564" r="7.5" fill="#9C27B0" />
<circle cx="27" cy="196" r="5.5" fill="#03A9F4" />
<circle cx="484" cy="354" r="6.0" fill="#03A9F4" />
<circle cx="692" cy="442" r="5.5" fill="#FFC107" />
<rect x="357" y="363" width="20" height="20" fill="#9C27B0" />
<polygon points="185,255 201,255 193.0,239" fill="#FF5722" />
<polygon points="261,517 280,517 270.5,498" fill="#E91E63" />
<rect x="290" y="6" width="11" height="11" fill="#03A9F4" />
<circle cx="474" cy="567" r="5.0" fill="#9C27B0" />
<circle cx="725" cy="382" r="5.0" fill="#03A9F4" />
<rect x="463" y="366" width="13" height="13" fill="#03A9F4" />
<circle cx="263" cy="171" r="7.5" fill="#9C27B0" />
<circle cx="314" cy="16" r="6.5" fill="#FF5722" />
<polygon points="431,169 451,169 441.0,149" fill="#FFC107" />
<polygon points="177,156 197,156 187.0,136" fill="#03A9F4" />
<circle cx="457" cy="444" r="7.5" fill="#FF5722" />
<rect x="177" y="346" width="6" height="6" fill="#E91E63" />
<rect x="92" y="492" width="13" height="13" fill="#FF5722" />
<polygon points="730,507 740,507 735.0,497" fill="#9C27B0" />
<rect x="748" y="381" width="16" height="16" fill="#FF5722" />
<circle cx="193" cy="519" r="7.5" fill="#03A9F4" />
<circle cx="330" cy="534" r="4.5" fill="#FFC107" />
<circle cx="638" cy="233" r="5.5" fill="#9C27B0" />
<circle cx="380" cy="188" r="3.0" fill="#9C27B0" />
<polygon points="131,132 151,132 141.0,112" fill="#FF5722" />
<rect x="454" y="58" width="17" height="17" fill="#03A9F4" />
<rect x="53" y="305" width="13" height="13" fill="#FF5722" />
<circle cx="464" cy="458" r="4.5" fill="#03A9F4" />
<rect x="443" y="471" width="17" height="17" fill="#FF5722" />
<polygon points="593,593 611,593 602.0,575" fill="#FF5722" />
<rect x="695" y="555" width="20" height="20" fill="#E91E63" />
<circle cx="259" cy="49" r="2.5" fill="#FF5722" />
<circle cx="357" cy="477" r="5.5" fill="#03A9F4" />
<circle cx="144" cy="339" r="5.5" fill="#E91E63" />
<rect x="781" y="555" width="7" height="7" fill="#9C27B0" />
<polygon points="48,132 55,132 51.5,125" fill="#FFC107" />
<rect x="527" y="265" width="17" height="17" fill="#9C27B0" />
</svg>